<svg width="80" height="80" viewBox="0 0 80 80" fill="none" xmlns="http://www.w3.org/2000/svg">
<g clip-path="url(#clip0_123_2)">
<path d="M0 40C0 17.9086 17.9086 0 40 0V0C62.0914 0 80 17.9086 80 40V40C80 62.0914 62.0914 80 40 80V80C17.9086 80 0 62.0914 0 40V40Z" fill="#D69A00"/>
<path d="M30.3544 30.7928H50.0459L47.1744 23.0886C47.0628 22.7724 46.8588 22.4972 46.5887 22.2986L30.3544 30.7928ZM30.3001 21.6486C30.9973 19.7743 32.5316 18.5714 34.223 18.5714H45.8673C47.5587 18.5714 49.093 19.7743 49.7916 21.6486L52.6616 29.3528C53.523 31.6643 52.1316 34.2857 50.0459 34.2857H30.0459C27.9601 34.2857 26.5701 31.6643 27.4301 29.3528L30.3016 21.6486H30.3001ZM14.6216 50.7928H34.2744L31.403 43.0886C31.2913 42.7725 31.0873 42.4973 30.8173 42.2986L14.6216 50.7928ZM14.5659 41.6486C15.2644 39.7743 16.8001 38.5714 18.4901 38.5714H30.0959C31.7873 38.5714 33.323 39.7743 34.0201 41.6486L36.8901 49.3528C37.7516 51.6643 36.3616 54.2857 34.2744 54.2857H14.3101C12.2244 54.2857 10.8344 51.6643 11.6959 49.3528L14.5659 41.6486ZM65.8373 50.7928H46.0516L62.3801 42.3C62.6359 42.48 62.8416 42.7514 62.9701 43.09L65.8387 50.7928H65.8373ZM49.9216 38.5714C48.2301 38.5714 46.6944 39.7743 45.9973 41.6486L43.1273 49.3528C42.2659 51.6643 43.6559 54.2857 45.743 54.2857H65.8387C67.9244 54.2857 69.3144 51.6643 68.453 49.3528L65.5816 41.6486C64.8887 39.7743 63.3544 38.5714 61.663 38.5714H49.9216Z" fill="white"/>
</g>
<defs>
<clipPath id="clip0_123_2">
<rect width="80" height="80" fill="white"/>
</clipPath>
</defs>
</svg>
